This is from the American PBS debut on 7-01-2012.						

												

												

												

All the extras are in separate files. 								

												

												

												

												

Enjoy and please share.										

												

												

												

												

												

											

Masterpiece Mystery Endeavour_720p.HDTV.x264_TTL.mkv
Format                           : Matroska
Format version                   : Version 2
File size                        : 1.74 GiB
Duration                         : 1h 20mn
Overall bit rate                 : 3 106 Kbps
Writing application              : HandBrake 0.9.5
Writing library                  : libmkv 0.6.4.1

Video
ID                               : 1
Format                           : AVC
Format/Info                      : Advanced Video Codec
Format profile                   : Main@L3.1
Format settings, CABAC           : Yes
Format settings, ReFrames        : 4 frames
Codec ID                         : V_MPEG4/ISO/AVC
Duration                         : 1h 20mn
Bit rate                         : 2 972 Kbps
Width                            : 1 280 pixels
Height                           : 720 pixels
Display aspect ratio             : 16:9
Frame rate mode                  : Variable
Frame rate                       : 29.970 fps
Color space                      : YUV
Chroma subsampling               : 4:2:0
Bit depth                        : 8 bits
Scan type                        : Progressive
Bits/(Pixel*Frame)               : 0.108
Stream size                      : 1.63 GiB (94%)
Writing library                  : x264 core 112


Audio
ID                               : 2
Format                           : AC-3
Format/Info                      : Audio Coding 3
Mode extension                   : CM (complete main)
Codec ID                         : A_AC3
Duration                         : 1h 20mn
Bit rate mode                    : Constant
Bit rate                         : 128 Kbps
Channel(s)                       : 2 channels
Channel positions                : Front: L R
Sampling rate                    : 48.0 KHz
Bit depth                        : 16 bits
Compression mode                 : Lossy
Stream size                      : 73.3 MiB (4%)
Default                          : Yes
Forced                           : No

